<svg width="415" height="84" viewBox="0 0 415 84" fill="none" xmlns="http://www.w3.org/2000/svg">
<rect width="415" height="84" rx="4" fill="#0B6EC7"/>
<path d="M125.201 33.4344C121.583 33.4344 117.207 33.9021 115.019 34.5257V39.904C117.544 39.2804 120.068 38.5789 123.097 38.5789C127.641 38.5789 130.67 39.5922 130.67 42.788V43.6454C127.641 42.6322 125.117 42.4763 123.182 42.4763C118.554 42.4763 113 44.1131 113 49.4135C113 53.6227 116.534 56.8964 122.677 56.8964C127.136 56.8964 130.081 55.3375 131.512 54.4021L132.185 56.4287H137.823V42.71C137.823 35.6949 132.353 33.4344 125.201 33.4344ZM120.405 49.5694C120.405 47.8546 121.835 46.8413 124.78 46.8413C127.305 46.8413 129.24 47.153 130.67 47.7766V50.5048C129.156 51.2064 127.136 52.0637 124.949 52.0637C121.919 52.0637 120.405 51.0505 120.405 49.5694ZM154.484 33.4344C147.584 33.4344 142.535 35.3831 142.535 40.2937C142.535 43.1777 143.629 45.7501 149.014 46.7633L154.315 47.7766C157.597 48.4003 158.018 49.0239 158.018 49.7254C158.018 50.9725 156.924 51.596 152.548 51.596C149.182 51.596 144.723 50.5828 143.04 50.0371V55.4933C144.975 56.117 149.519 56.8964 152.716 56.8964C161.72 56.8964 165.086 53.7785 165.086 49.4915C165.086 46.1398 163.066 43.9573 157.934 42.9439L153.053 41.9306C150.108 41.3071 149.435 41.3071 149.435 40.2937C149.435 38.8128 152.801 38.6569 154.988 38.6569C157.513 38.6569 160.206 39.0466 163.571 40.1378V34.8375C161.468 34.058 158.354 33.4344 154.484 33.4344ZM185.112 33.9021H177.539V28.134H171.481L170.64 33.9021H166.264V39.2025H170.387V49.1017C170.387 55.0258 174.594 56.8964 179.643 56.8964C181.915 56.8964 183.261 56.7406 185.112 56.117V50.8166C183.85 51.2063 182.083 51.4402 181.158 51.4402C178.213 51.4402 177.539 50.1151 177.539 47.9326V39.2025H185.112V33.9021ZM213.638 47.6207V44.5028C213.638 37.4097 209.431 33.4344 201.437 33.4344C194.453 33.4344 187.973 37.0979 187.973 44.9705C187.973 53.3108 193.611 56.8964 202.278 56.8964C205.812 56.8964 209.515 56.1171 212.291 55.3375V50.1151C209.683 50.8945 205.896 51.674 202.446 51.674C199.754 51.674 195.799 50.9725 195.294 47.6207H213.638ZM195.294 43.4896C195.715 40.0598 197.987 38.5789 201.521 38.5789C204.55 38.5789 206.233 40.4497 206.233 43.4896H195.294ZM224.072 33.9021H218.35V56.4287H225.502V42.0086C227.774 40.7614 230.719 39.6702 234.59 39.7481V33.4344C230.383 33.5124 227.353 34.8375 224.913 36.3964L224.072 33.9021ZM258.992 56.4287V26.1074H251.84V56.4287H258.992ZM268.332 33.9021C265.387 37.02 262.779 40.3717 259.497 45.1264C264.209 49.6474 267.322 53.233 269.594 56.4287H278.346C277.42 55.2595 271.781 48.4003 267.407 44.7367C270.604 40.8394 273.381 37.7215 276.915 33.9021H268.332ZM302.916 38.1892V33.9021H280.113V39.2025H293.576L279.776 52.0637V56.4287H303V51.1283H289.032L302.916 38.1892Z" fill="white"/>
<path d="M242.079 56.8192C240.564 56.8192 239.302 56.3515 238.208 55.4161C237.198 54.4808 236.693 53.2336 236.693 51.8306C236.693 50.3495 237.198 49.1804 238.208 48.3229C239.218 47.3876 240.564 46.9199 242.079 46.9199C243.677 46.9199 244.94 47.3876 245.949 48.3229C246.959 49.1804 247.464 50.3495 247.464 51.8306C247.464 53.2336 246.959 54.4808 245.949 55.4161C244.94 56.3515 243.593 56.8192 242.079 56.8192Z" fill="#F7D117"/>
</svg>
