<?xml version="1.0"?>
<svg xmlns="http://www.w3.org/2000/svg" xmlns:xlink="http://www.w3.org/1999/xlink" xmlns:svgjs="http://svgjs.com/svgjs" version="1.1" width="512" height="512" x="0" y="0" viewBox="0 0 512.016 512.016" style="enable-background:new 0 0 512 512" xml:space="preserve" class=""><g>
<g xmlns="http://www.w3.org/2000/svg">
	<g>
		<path d="M352.019,384.008h-48v-256h48c6.464,0,12.32-3.904,14.784-9.888s1.088-12.864-3.456-17.44l-96-96    c-6.24-6.24-16.384-6.24-22.624,0l-96,96c-4.608,4.608-5.984,11.456-3.488,17.44c2.464,5.984,8.32,9.888,14.784,9.888h48v256h-48    c-6.464,0-12.32,3.904-14.784,9.888c-2.496,5.984-1.12,12.864,3.456,17.44l96,96c6.24,6.24,16.384,6.24,22.624,0l96-96    c4.576-4.576,5.952-11.456,3.456-17.44C364.275,387.912,358.483,384.008,352.019,384.008z" fill="#ffffff" data-original="#000000" style=""/>
	</g>
</g>
<g xmlns="http://www.w3.org/2000/svg">
</g>
<g xmlns="http://www.w3.org/2000/svg">
</g>
<g xmlns="http://www.w3.org/2000/svg">
</g>
<g xmlns="http://www.w3.org/2000/svg">
</g>
<g xmlns="http://www.w3.org/2000/svg">
</g>
<g xmlns="http://www.w3.org/2000/svg">
</g>
<g xmlns="http://www.w3.org/2000/svg">
</g>
<g xmlns="http://www.w3.org/2000/svg">
</g>
<g xmlns="http://www.w3.org/2000/svg">
</g>
<g xmlns="http://www.w3.org/2000/svg">
</g>
<g xmlns="http://www.w3.org/2000/svg">
</g>
<g xmlns="http://www.w3.org/2000/svg">
</g>
<g xmlns="http://www.w3.org/2000/svg">
</g>
<g xmlns="http://www.w3.org/2000/svg">
</g>
<g xmlns="http://www.w3.org/2000/svg">
</g>
</g></svg>
